<?xml version="1.0" encoding="UTF-8" standalone="no"?><!DOCTYPE svg PUBLIC "-//W3C//DTD SVG 1.1//EN" "http://www.w3.org/Graphics/SVG/1.1/DTD/svg11.dtd"><svg width="100%" height="100%" viewBox="0 0 429 90" version="1.1" xmlns="http://www.w3.org/2000/svg" xmlns:xlink="http://www.w3.org/1999/xlink" xml:space="preserve" style="fill-rule:evenodd;clip-rule:evenodd;stroke-linejoin:round;stroke-miterlimit:1.41421;"><path d="M357.278,47.362c0,0 -10.018,-7.843 -19.859,-15.041c8.813,-1.057 15.981,0.235 19.506,0.705c0.94,-5.17 4.818,-9.165 5.875,-9.518c1.528,4.583 -2.585,11.869 -1.41,10.576c1.175,-1.293 4.583,-3.525 6.698,-3.76c0.488,8.307 -4.294,13.97 -10.81,17.038l0,0Z" style="fill:#ff6700;"/><path d="M356.895,47.127c0,0 -3.701,28.108 -22.091,31.022c9.556,4.098 20.446,-0.47 24.676,-5.405c0.117,6.462 -5.17,15.158 -5.405,16.215c-0.235,1.058 12.338,-5.522 13.513,-16.803c13.16,6.933 30.081,-4.348 32.314,-5.993c1.763,3.29 1.175,11.986 -1.645,16.099c14.453,-5.523 15.981,-27.027 9.988,-35.017c-23.501,20.328 -45.005,5.17 -51.35,-0.118l0,0Z" style="fill:#ff6700;"/><path d="M405.47,0.007c11.634,12.808 14.454,28.084 2.775,47.238c1.224,0.473 19.337,-3.399 20.022,-22.561c0.457,-12.813 -10.279,-25.024 -22.797,-24.677l0,0Z" style="fill:#ff6700;"/><path d="M30.567,58.387l-6.114,22.207l-3.32,0l-5.156,-17.031c-0.208,-0.69 -0.358,-1.221 -0.45,-1.592c-0.09,-0.371 -0.156,-0.667 -0.195,-0.889l-0.078,0c-0.039,0.196 -0.117,0.531 -0.235,1.006c-0.117,0.475 -0.266,1.019 -0.449,1.631l-5.077,16.875l-3.556,0l-5.937,-22.207l3.614,0l3.281,14.004c0.26,1.068 0.465,2.031 0.615,2.891c0.15,0.859 0.264,1.536 0.342,2.031l0.039,0c0.013,-0.222 0.058,-0.524 0.137,-0.908c0.078,-0.384 0.165,-0.782 0.263,-1.192c0.098,-0.41 0.192,-0.804 0.283,-1.182c0.091,-0.377 0.169,-0.67 0.235,-0.879l4.433,-14.765l4.239,0l3.964,13.125c0.157,0.521 0.307,1.071 0.45,1.65c0.143,0.58 0.27,1.137 0.38,1.67c0.111,0.534 0.199,1.016 0.264,1.446c0.065,0.43 0.104,0.762 0.118,0.995l0.078,0c0.078,-0.624 0.179,-1.321 0.302,-2.089c0.124,-0.768 0.29,-1.575 0.499,-2.422l3.515,-14.375l3.516,0Z" style="fill:none;"/><path d="M52.871,80.594l-3.594,0l0,-10.195l-11.523,0l0,10.195l-3.633,0l0,-22.207l3.633,0l0,8.887l11.523,0l0,-8.887l3.594,0l0,22.207Z" style="fill:none;"/><path d="M76.523,80.594l-17.714,0l0,-22.207l17.148,0l0,3.125l-13.516,0l0,6.035l12.637,0l0,3.125l-12.637,0l0,6.797l14.082,0l0,3.125Z" style="fill:none;"/><path d="M101.934,80.594l-4.453,0l-4.16,-6.074c-0.482,-0.703 -0.922,-1.286 -1.319,-1.748c-0.397,-0.463 -0.801,-0.833 -1.211,-1.114c-0.41,-0.279 -0.856,-0.475 -1.338,-0.586c-0.482,-0.11 -1.042,-0.165 -1.679,-0.165l-3.164,0l0,9.687l-3.634,0l0,-22.207l10.547,0c1.302,0 2.474,0.104 3.516,0.312c1.042,0.209 1.927,0.55 2.657,1.026c0.729,0.475 1.289,1.1 1.679,1.875c0.391,0.775 0.586,1.735 0.586,2.881c0,1.693 -0.563,3.063 -1.69,4.111c-1.126,1.048 -2.789,1.715 -4.99,2.002l0,0.078c1.602,0.638 3.099,1.96 4.493,3.965l4.16,5.957Zm-17.324,-12.481l6.152,0c1.784,0 3.145,-0.279 4.082,-0.839c0.937,-0.56 1.406,-1.491 1.406,-2.793c0,-1.029 -0.4,-1.813 -1.201,-2.354c-0.801,-0.54 -2.093,-0.81 -3.877,-0.81l-6.562,0l0,6.796Z" style="fill:none;"/><path d="M122.969,80.594l-17.715,0l0,-22.207l17.149,0l0,3.125l-13.516,0l0,6.035l12.637,0l0,3.125l-12.637,0l0,6.797l14.082,0l0,3.125Z" style="fill:none;"/><rect x="138.535" y="58.387" width="3.633" height="22.207" style="fill:none;"/><path d="M161.367,64.989c-0.117,-1.29 -0.621,-2.285 -1.513,-2.989c-0.892,-0.703 -2.172,-1.054 -3.839,-1.054c-0.729,0 -1.402,0.068 -2.021,0.204c-0.618,0.137 -1.156,0.339 -1.611,0.606c-0.456,0.267 -0.811,0.592 -1.065,0.977c-0.253,0.384 -0.381,0.817 -0.381,1.298c0,0.43 0.092,0.808 0.274,1.133c0.182,0.326 0.501,0.619 0.957,0.879c0.456,0.261 1.081,0.508 1.875,0.743c0.794,0.234 1.81,0.475 3.047,0.722c1.224,0.261 2.357,0.547 3.398,0.859c1.042,0.313 1.943,0.723 2.705,1.231c0.762,0.508 1.358,1.142 1.787,1.904c0.43,0.762 0.645,1.716 0.645,2.862c0,0.963 -0.215,1.848 -0.645,2.656c-0.429,0.807 -1.031,1.5 -1.806,2.08c-0.775,0.579 -1.702,1.032 -2.784,1.357c-1.08,0.326 -2.271,0.489 -3.574,0.489c-1.666,0 -3.128,-0.182 -4.384,-0.547c-1.257,-0.365 -2.311,-0.876 -3.165,-1.533c-0.852,-0.658 -1.5,-1.449 -1.943,-2.373c-0.442,-0.925 -0.69,-1.947 -0.742,-3.067l3.477,-0.234c0.052,0.82 0.26,1.533 0.624,2.138c0.365,0.606 0.84,1.11 1.426,1.514c0.586,0.404 1.264,0.703 2.032,0.898c0.768,0.196 1.581,0.293 2.441,0.293c0.834,0 1.589,-0.084 2.266,-0.254c0.677,-0.169 1.256,-0.409 1.738,-0.722c0.482,-0.312 0.853,-0.687 1.113,-1.123c0.26,-0.436 0.391,-0.922 0.391,-1.455c0,-0.508 -0.088,-0.951 -0.264,-1.329c-0.175,-0.377 -0.521,-0.722 -1.035,-1.034c-0.514,-0.313 -1.237,-0.603 -2.168,-0.87c-0.931,-0.266 -2.145,-0.55 -3.642,-0.849c-1.329,-0.274 -2.468,-0.606 -3.419,-0.996c-0.95,-0.391 -1.725,-0.844 -2.324,-1.358c-0.599,-0.514 -1.038,-1.094 -1.318,-1.738c-0.28,-0.644 -0.42,-1.364 -0.42,-2.158c0,-0.886 0.195,-1.702 0.586,-2.452c0.391,-0.748 0.951,-1.393 1.68,-1.933c0.729,-0.54 1.611,-0.963 2.646,-1.27c1.035,-0.306 2.198,-0.458 3.486,-0.458c1.303,0 2.497,0.149 3.584,0.448c1.088,0.3 2.022,0.736 2.803,1.309c0.782,0.573 1.4,1.276 1.856,2.11c0.455,0.833 0.709,1.784 0.762,2.851l-3.536,0.235l0,0Z" style="fill:none;"/><path d="M30.567,58.387l-6.114,22.207l-3.32,0l-5.156,-17.031c-0.208,-0.69 -0.358,-1.221 -0.45,-1.592c-0.09,-0.371 -0.156,-0.667 -0.195,-0.889l-0.078,0c-0.039,0.196 -0.117,0.531 -0.235,1.006c-0.117,0.475 -0.266,1.019 -0.449,1.631l-5.077,16.875l-3.556,0l-5.937,-22.207l3.614,0l3.281,14.004c0.26,1.068 0.465,2.031 0.615,2.891c0.15,0.859 0.264,1.536 0.342,2.031l0.039,0c0.013,-0.222 0.058,-0.524 0.137,-0.908c0.078,-0.384 0.165,-0.782 0.263,-1.192c0.098,-0.41 0.192,-0.804 0.283,-1.182c0.091,-0.377 0.169,-0.67 0.235,-0.879l4.433,-14.765l4.239,0l3.964,13.125c0.157,0.521 0.307,1.071 0.45,1.65c0.143,0.58 0.27,1.137 0.38,1.67c0.111,0.534 0.199,1.016 0.264,1.446c0.065,0.43 0.104,0.762 0.118,0.995l0.078,0c0.078,-0.624 0.179,-1.321 0.302,-2.089c0.124,-0.768 0.29,-1.575 0.499,-2.422l3.515,-14.375l3.516,0Z" style="fill:#ff6700;"/><path d="M52.871,80.594l-3.594,0l0,-10.195l-11.523,0l0,10.195l-3.633,0l0,-22.207l3.633,0l0,8.887l11.523,0l0,-8.887l3.594,0l0,22.207Z" style="fill:#ff6700;"/><path d="M76.523,80.594l-17.714,0l0,-22.207l17.148,0l0,3.125l-13.516,0l0,6.035l12.637,0l0,3.125l-12.637,0l0,6.797l14.082,0l0,3.125Z" style="fill:#ff6700;"/><path d="M101.934,80.594l-4.453,0l-4.16,-6.074c-0.482,-0.703 -0.922,-1.286 -1.319,-1.748c-0.397,-0.463 -0.801,-0.833 -1.211,-1.114c-0.41,-0.279 -0.856,-0.475 -1.338,-0.586c-0.482,-0.11 -1.042,-0.165 -1.679,-0.165l-3.164,0l0,9.687l-3.634,0l0,-22.207l10.547,0c1.302,0 2.474,0.104 3.516,0.312c1.042,0.209 1.927,0.55 2.657,1.026c0.729,0.475 1.289,1.1 1.679,1.875c0.391,0.775 0.586,1.735 0.586,2.881c0,1.693 -0.563,3.063 -1.69,4.111c-1.126,1.048 -2.789,1.715 -4.99,2.002l0,0.078c1.602,0.638 3.099,1.96 4.493,3.965l4.16,5.957Zm-17.324,-12.481l6.152,0c1.784,0 3.145,-0.279 4.082,-0.839c0.937,-0.56 1.406,-1.491 1.406,-2.793c0,-1.029 -0.4,-1.813 -1.201,-2.354c-0.801,-0.54 -2.093,-0.81 -3.877,-0.81l-6.562,0l0,6.796Z" style="fill:#ff6700;"/><path d="M122.969,80.594l-17.715,0l0,-22.207l17.149,0l0,3.125l-13.516,0l0,6.035l12.637,0l0,3.125l-12.637,0l0,6.797l14.082,0l0,3.125Z" style="fill:#ff6700;"/><rect x="138.535" y="58.387" width="3.633" height="22.207" style="fill:#ff6700;"/><path d="M161.367,64.989c-0.117,-1.29 -0.621,-2.285 -1.513,-2.989c-0.892,-0.703 -2.172,-1.054 -3.839,-1.054c-0.729,0 -1.402,0.068 -2.021,0.204c-0.618,0.137 -1.156,0.339 -1.611,0.606c-0.456,0.267 -0.811,0.592 -1.065,0.977c-0.253,0.384 -0.381,0.817 -0.381,1.298c0,0.43 0.092,0.808 0.274,1.133c0.182,0.326 0.501,0.619 0.957,0.879c0.456,0.261 1.081,0.508 1.875,0.743c0.794,0.234 1.81,0.475 3.047,0.722c1.224,0.261 2.357,0.547 3.398,0.859c1.042,0.313 1.943,0.723 2.705,1.231c0.762,0.508 1.358,1.142 1.787,1.904c0.43,0.762 0.645,1.716 0.645,2.862c0,0.963 -0.215,1.848 -0.645,2.656c-0.429,0.807 -1.031,1.5 -1.806,2.08c-0.775,0.579 -1.702,1.032 -2.784,1.357c-1.08,0.326 -2.271,0.489 -3.574,0.489c-1.666,0 -3.128,-0.182 -4.384,-0.547c-1.257,-0.365 -2.311,-0.876 -3.165,-1.533c-0.852,-0.658 -1.5,-1.449 -1.943,-2.373c-0.442,-0.925 -0.69,-1.947 -0.742,-3.067l3.477,-0.234c0.052,0.82 0.26,1.533 0.624,2.138c0.365,0.606 0.84,1.11 1.426,1.514c0.586,0.404 1.264,0.703 2.032,0.898c0.768,0.196 1.581,0.293 2.441,0.293c0.834,0 1.589,-0.084 2.266,-0.254c0.677,-0.169 1.256,-0.409 1.738,-0.722c0.482,-0.312 0.853,-0.687 1.113,-1.123c0.26,-0.436 0.391,-0.922 0.391,-1.455c0,-0.508 -0.088,-0.951 -0.264,-1.329c-0.175,-0.377 -0.521,-0.722 -1.035,-1.034c-0.514,-0.313 -1.237,-0.603 -2.168,-0.87c-0.931,-0.266 -2.145,-0.55 -3.642,-0.849c-1.329,-0.274 -2.468,-0.606 -3.419,-0.996c-0.95,-0.391 -1.725,-0.844 -2.324,-1.358c-0.599,-0.514 -1.038,-1.094 -1.318,-1.738c-0.28,-0.644 -0.42,-1.364 -0.42,-2.158c0,-0.886 0.195,-1.702 0.586,-2.452c0.391,-0.748 0.951,-1.393 1.68,-1.933c0.729,-0.54 1.611,-0.963 2.646,-1.27c1.035,-0.306 2.198,-0.458 3.486,-0.458c1.303,0 2.497,0.149 3.584,0.448c1.088,0.3 2.022,0.736 2.803,1.309c0.782,0.573 1.4,1.276 1.856,2.11c0.455,0.833 0.709,1.784 0.762,2.851l-3.536,0.235l0,0Z" style="fill:#ff6700;"/><path d="M183.186,80.594l0,-17.676l-6.661,0l0,-4.55l18.926,0l0,4.55l-6.641,0l0,17.676l-5.624,0l0,0Z" style="fill:none;"/><path d="M199.182,80.594l0,-22.226l5.625,0l0,8.359l8.164,0l0,-8.359l5.625,0l0,22.226l-5.625,0l0,-9.316l-8.164,0l0,9.316l-5.625,0Z" style="fill:none;"/><path d="M224.533,80.594l0,-22.226l17.735,0l0,4.55l-12.11,0l0,3.75l11.27,0l0,4.551l-11.27,0l0,4.824l12.539,0l0,4.551l-18.164,0Z" style="fill:none;"/><path d="M258.264,80.594l0,-22.226l16.484,0l0,4.55l-10.859,0l0,4.063l9.355,0l0,4.57l-9.355,0l0,9.043l-5.625,0Z" style="fill:none;"/><path d="M277.892,69.598c0,-1.836 0.264,-3.473 0.792,-4.912c0.527,-1.439 1.282,-2.653 2.265,-3.643c0.984,-0.99 2.178,-1.745 3.584,-2.266c1.407,-0.52 2.988,-0.78 4.746,-0.78c1.745,0 3.324,0.266 4.736,0.8c1.414,0.534 2.618,1.299 3.614,2.295c0.996,0.996 1.764,2.204 2.304,3.623c0.541,1.42 0.811,3.015 0.811,4.785c0,1.784 -0.27,3.383 -0.811,4.795c-0.54,1.413 -1.308,2.611 -2.304,3.594c-0.996,0.983 -2.194,1.738 -3.594,2.265c-1.4,0.528 -2.959,0.792 -4.678,0.792c-1.758,0 -3.342,-0.264 -4.755,-0.792c-1.413,-0.527 -2.618,-1.282 -3.614,-2.265c-0.996,-0.983 -1.761,-2.175 -2.295,-3.574c-0.533,-1.4 -0.801,-2.972 -0.801,-4.717l0,0Zm5.762,-0.137c0,1.159 0.147,2.168 0.44,3.027c0.293,0.86 0.693,1.573 1.201,2.139c0.508,0.566 1.107,0.99 1.797,1.27c0.69,0.279 1.439,0.42 2.246,0.42c0.807,0 1.553,-0.141 2.236,-0.42c0.684,-0.28 1.276,-0.704 1.778,-1.27c0.501,-0.566 0.895,-1.282 1.181,-2.148c0.286,-0.866 0.43,-1.891 0.43,-3.076c0,-1.159 -0.137,-2.165 -0.41,-3.018c-0.274,-0.853 -0.654,-1.556 -1.143,-2.109c-0.488,-0.553 -1.08,-0.964 -1.777,-1.231c-0.697,-0.267 -1.462,-0.4 -2.295,-0.4c-0.82,0 -1.579,0.13 -2.275,0.391c-0.697,0.26 -1.296,0.67 -1.798,1.23c-0.501,0.56 -0.894,1.269 -1.181,2.129c-0.286,0.859 -0.43,1.881 -0.43,3.066l0,0Z" style="fill:none;"/><path d="M302.893,80.594l7.969,-11.563l-7.247,-10.663l6.387,0l4.18,6.523l4.062,-6.523l6.348,0l-7.266,10.8l7.969,11.426l-6.543,0l-4.668,-7.051l-4.668,7.051l-6.523,0l0,0Z" style="fill:none;"/><path d="M183.186,80.594l0,-17.676l-6.661,0l0,-4.55l18.926,0l0,4.55l-6.641,0l0,17.676l-5.624,0l0,0Z" style="fill:#ff6700;"/><path d="M199.182,80.594l0,-22.226l5.625,0l0,8.359l8.164,0l0,-8.359l5.625,0l0,22.226l-5.625,0l0,-9.316l-8.164,0l0,9.316l-5.625,0Z" style="fill:#ff6700;"/><path d="M224.533,80.594l0,-22.226l17.735,0l0,4.55l-12.11,0l0,3.75l11.27,0l0,4.551l-11.27,0l0,4.824l12.539,0l0,4.551l-18.164,0Z" style="fill:#ff6700;"/><path d="M258.264,80.594l0,-22.226l16.484,0l0,4.55l-10.859,0l0,4.063l9.355,0l0,4.57l-9.355,0l0,9.043l-5.625,0Z" style="fill:#ff6700;"/><path d="M277.892,69.598c0,-1.836 0.264,-3.473 0.792,-4.912c0.527,-1.439 1.282,-2.653 2.265,-3.643c0.984,-0.99 2.178,-1.745 3.584,-2.266c1.407,-0.52 2.988,-0.78 4.746,-0.78c1.745,0 3.324,0.266 4.736,0.8c1.414,0.534 2.618,1.299 3.614,2.295c0.996,0.996 1.764,2.204 2.304,3.623c0.541,1.42 0.811,3.015 0.811,4.785c0,1.784 -0.27,3.383 -0.811,4.795c-0.54,1.413 -1.308,2.611 -2.304,3.594c-0.996,0.983 -2.194,1.738 -3.594,2.265c-1.4,0.528 -2.959,0.792 -4.678,0.792c-1.758,0 -3.342,-0.264 -4.755,-0.792c-1.413,-0.527 -2.618,-1.282 -3.614,-2.265c-0.996,-0.983 -1.761,-2.175 -2.295,-3.574c-0.533,-1.4 -0.801,-2.972 -0.801,-4.717l0,0Zm5.762,-0.137c0,1.159 0.147,2.168 0.44,3.027c0.293,0.86 0.693,1.573 1.201,2.139c0.508,0.566 1.107,0.99 1.797,1.27c0.69,0.279 1.439,0.42 2.246,0.42c0.807,0 1.553,-0.141 2.236,-0.42c0.684,-0.28 1.276,-0.704 1.778,-1.27c0.501,-0.566 0.895,-1.282 1.181,-2.148c0.286,-0.866 0.43,-1.891 0.43,-3.076c0,-1.159 -0.137,-2.165 -0.41,-3.018c-0.274,-0.853 -0.654,-1.556 -1.143,-2.109c-0.488,-0.553 -1.08,-0.964 -1.777,-1.231c-0.697,-0.267 -1.462,-0.4 -2.295,-0.4c-0.82,0 -1.579,0.13 -2.275,0.391c-0.697,0.26 -1.296,0.67 -1.798,1.23c-0.501,0.56 -0.894,1.269 -1.181,2.129c-0.286,0.859 -0.43,1.881 -0.43,3.066l0,0Z" style="fill:#ff6700;"/><path d="M302.893,80.594l7.969,-11.563l-7.247,-10.663l6.387,0l4.18,6.523l4.062,-6.523l6.348,0l-7.266,10.8l7.969,11.426l-6.543,0l-4.668,-7.051l-4.668,7.051l-6.523,0l0,0Z" style="fill:#ff6700;"/></svg>